<?xml version="1.0"?><svg version="1.2" baseProfile="tiny-ps" viewBox="0 0 300 300" xmlns="http://www.w3.org/2000/svg" xmlns:xlink="http://www.w3.org/1999/xlink"><title>telegram-logo.1b2bb5b107f046ea9325</title><g><g fill="#9674fc" transform="matrix(.1 0 0 -.1 0 300)"><path d="M1315 2949c-497-68-910-363-1129-805-53-108-89-214-118-348l-22-101v-175l1-175 21-102c42-194 116-370 224-533l63-95 115-115 115-116 94-62c113-76 245-141 368-182l91-30 124-21 123-21 165 5 165 5 90 20c296 67 545 208 757 430l86 91 62 92c112 168 180 327 222 522l22 102v180l1 180-18 90c-10 49-32 130-48 181l-29 91-54 107c-30 59-81 143-113 189l-58 82-95 95-95 95-90 63-90 64-110 54c-125 61-227 95-364 125l-96 20-155 4-155 4-70-10zm875-819 20-20v-31c0-106-172-1173-206-1280l-15-46-22-20c-12-12-32-24-44-27l-22-7-37 16c-32 13-423 281-581 397l-53 38-6 25c-3 14-4 35 0 48l6 22 290 278 290 279v39l-14 5-14 6-114-80c-211-147-601-404-642-423l-41-19h-93l-154 46-153 46-17 15c-10 9-18 24-18 34v18l43 25c80 46 1244 531 1447 602 111 39 123 41 150 14z"/></g></g></svg>